<svg xmlns="http://www.w3.org/2000/svg" xmlns:xlink="http://www.w3.org/1999/xlink" width="178.814" height="177.14" viewBox="0 0 178.814 177.14">
  <defs>
    <linearGradient id="linear-gradient" x1="0.247" y1="15.033" x2="0.497" y2="14.65" gradientUnits="objectBoundingBox">
      <stop offset="0" stop-color="#f8d80a"/>
      <stop offset="1" stop-color="#fac013"/>
    </linearGradient>
    <linearGradient id="linear-gradient-2" x1="0.569" y1="7.004" x2="0.682" y2="6.755" gradientUnits="objectBoundingBox">
      <stop offset="0" stop-color="#f47421"/>
      <stop offset="1" stop-color="#f15f22"/>
    </linearGradient>
    <linearGradient id="linear-gradient-3" x1="0.764" y1="4.244" x2="0.224" y2="5.013" gradientUnits="objectBoundingBox">
      <stop offset="0" stop-color="#5cb247"/>
      <stop offset="0.11" stop-color="#6db744"/>
      <stop offset="0.33" stop-color="#89be3e"/>
      <stop offset="0.55" stop-color="#9dc43a"/>
      <stop offset="0.77" stop-color="#a9c738"/>
      <stop offset="0.99" stop-color="#adc837"/>
    </linearGradient>
    <linearGradient id="linear-gradient-4" x1="0.951" y1="4.718" x2="-0.095" y2="5.561" xlink:href="#linear-gradient-3"/>
    <linearGradient id="linear-gradient-5" x1="0.167" y1="4.599" x2="0.758" y2="3.849" gradientUnits="objectBoundingBox">
      <stop offset="0" stop-color="#f5831f"/>
      <stop offset="1" stop-color="#ee3324"/>
    </linearGradient>
    <linearGradient id="linear-gradient-6" x1="-0.326" y1="45.41" x2="0.675" y2="45.41" gradientUnits="objectBoundingBox">
      <stop offset="0" stop-color="#f9dc00"/>
      <stop offset="1" stop-color="#f9c812"/>
    </linearGradient>
    <linearGradient id="linear-gradient-7" x1="0.014" y1="21.244" x2="0.955" y2="20.276" gradientUnits="objectBoundingBox">
      <stop offset="0" stop-color="#fcb216"/>
      <stop offset="1" stop-color="#f26a21"/>
    </linearGradient>
    <linearGradient id="linear-gradient-8" x1="0.213" y1="12.561" x2="0.82" y2="11.711" gradientUnits="objectBoundingBox">
      <stop offset="0" stop-color="#e2da1d"/>
      <stop offset="1" stop-color="#9ec23b"/>
    </linearGradient>
  </defs>
  <g id="Group_64" data-name="Group 64" transform="translate(-919.62 -184.58)">
    <path id="Path_5" data-name="Path 5" d="M380.18,382.37l-.52-3.57a12.69,12.69,0,0,1,.52,3.57Z" transform="translate(670 -66)" fill="#fff"/>
    <path id="Path_6" data-name="Path 6" d="M322.86,272.84c-2.57,1.75-6.32,2.48-8.75,4-4.94,3.09-10.49,5.5-15.26,9.25-4.51,3.53-9.93,7-14.76,11.26s-8.61,9-13.26,14c-1.11,1.19-2.56,2.83-3.5,4-4.05-15.38,2.65-33.43,16.26-41.53,5.39-4,21-9.75,37.56-2A19.353,19.353,0,0,1,322.86,272.84Z" transform="translate(670 -66)" fill="url(#linear-gradient)"/>
    <path id="Path_7" data-name="Path 7" d="M320.36,423.44c4.07-.8,8.7-1.68,12.76-2.5a79.37,79.37,0,0,0,13.67-4c4.82-1.9,9.17-4.22,13.85-6.49,3.4-1.77,6.9-3.5,10.25-5.5,3.45-2.31,6.95-4.46,10.26-7a150.145,150.145,0,0,0,17-15.26,142.678,142.678,0,0,0,14-16.76c1.95-2.81,3.71-6.35,5.51-9.26a65.5,65.5,0,0,1-4.385,23.573C405.23,399.23,391.47,412.83,373.13,421.71a73.878,73.878,0,0,1-8.93,3.13,93.54,93.54,0,0,1-21.84,2.88C335,427.4,327.33,426.3,320.36,423.44Z" transform="translate(670 -66)" fill="url(#linear-gradient-2)"/>
    <path id="Path_8" data-name="Path 8" d="M271,340.37a78.629,78.629,0,0,0-1.13,11.36A79.217,79.217,0,0,1,271,340.64a47.266,47.266,0,0,0,.77-7.12,49.5,49.5,0,0,1-.77,6.85Zm19.73,64.43ZM426,301.18a45.48,45.48,0,0,0-12.27-20.64c-10-9.51-22.3-12.86-35.83-12.42a114.51,114.51,0,0,0-33.7,6.18h0a3.89,3.89,0,0,1-2.55.77l-.08-.09c.61-1.06,1.69-1.23,2.73-1.51h0c10.51-4.78,21.64-7.42,33-9.27a27.315,27.315,0,0,0-3.94-.58,100.119,100.119,0,0,0-32,3,109.434,109.434,0,0,0-13.09,4.06c-1.53.6-3.3,1.75-4.8,2.45h0a33.37,33.37,0,0,0,14.84,6.47h0c.67.11,1.36.19,2.05.25h0c.41,0,.83.06,1.25.08h6.09c.75,0,1.53.08,2.29.13s1.39.12,2.09.2h.31l.94.12a76.542,76.542,0,0,1,26.23,8.3c1.13.61,2.42,1,3.18,2.2a.49.49,0,0,1,.3.14h0a1,1,0,0,1,1.11.75h.06a1.06,1.06,0,0,1,1.17.71h0a10.27,10.27,0,0,1,2.8,2l.43.32a2.648,2.648,0,0,1,.54.25c8.27,6.55,14.38,14.57,19.63,23.67a72.28,72.28,0,0,1,7.74,20.61A116,116,0,0,1,418,355.78h.21c.25-.37.54-1.22.75-1.62q1.25-2.4,2.34-4.86h0a80.351,80.351,0,0,0,4.27-12.06c1.5-5.71,2.8-11.46,2.85-17.42A62.759,62.759,0,0,0,426,301.18Z" transform="translate(670 -66)" fill="url(#linear-gradient-3)"/>
    <path id="Path_9" data-name="Path 9" d="M310,419.39a89.861,89.861,0,0,1-10.46-6.65,40.854,40.854,0,0,1-3.54-3l-.72-.62c-1.61-1.39-3.1-2.82-4.5-4.26h0c-.36-.37-.71-.75-1.05-1.11l-.14-.15c-.4-.43-.79-.87-1.17-1.31l-.16-.18-.91-1.06-.19-.23-.14-.18a.17.17,0,0,1,0-.07h0l-.25-.18-1-1.28-.12-.17c-.25-.33-.52-.66-.77-1l-.42-.56h0l-.58-.8-.08-.1c-.51-.72-1-1.41-1.45-2.08l-.19-.28-.39-.59-.1-.15c-.46-.7-.88-1.38-1.27-2-.15-.25-.3-.48-.44-.72l-.25-.41-.05-.09c-.5-.83-.91-1.58-1.27-2.25A74.07,74.07,0,0,1,271,340.36c.88-5.08,1.25-10.09-.19-15.17-.93-3.32-2.49-6.4-3.34-9.73v-.08l-.06.06-.12.14h0a84,84,0,0,0-10.11,15.2c-8.61,15.65-10,31.89-3.48,48.53,6.69,17,19.1,28.07,36.76,32.9,1.6.44,3.3.58,4.72,1.55a84.6,84.6,0,0,1-38.56-12.09c2.62,4.83,11,11.29,17.28,14.46,14.12,7.11,29.27,9.22,44.7,7.41h0C316.05,421.85,312.58,420.88,310,419.39Zm-39-79a49.456,49.456,0,0,0,.75-6.86,47.52,47.52,0,0,1-.76,7.13,78,78,0,0,0-1.12,11.1A78.626,78.626,0,0,1,271,340.37Z" transform="translate(670 -66)" fill="url(#linear-gradient-4)"/>
    <path id="Path_10" data-name="Path 10" d="M418.11,355.51h0c0-1-.09-2.07-.14-3.1h0a91.3,91.3,0,0,0-1.35-12.75,73.6,73.6,0,0,0-27.57-44.49,2.839,2.839,0,0,0-.53-.25l-.44-.32a10.12,10.12,0,0,0-2.8-2h0a1,1,0,0,0-1.16-.71h-.07a1,1,0,0,0-1.11-.75h0a.49.49,0,0,0-.3-.14c-.75-1.17-2.05-1.59-3.17-2.2a75.419,75.419,0,0,0-26-8.55l-.93-.12h-.32c-.69-.08-1.39-.14-2.09-.2-1.09-.08-2.2-.13-3.3-.16h-5.09a6.566,6.566,0,0,1-1.25-.08h0a32.08,32.08,0,0,1-15.57-5.77c-.44-.3-.89-.62-1.33-.94h0l-1.25-.11c-2.54,1.75-5.48,2.72-8.2,4.11A131.885,131.885,0,0,0,298.77,286a135.759,135.759,0,0,0-14.58,11.29,123.466,123.466,0,0,0-13.8,14.21q-1.45,1.85-2.93,3.68l-.18.53v.05l.05-.05c.84,3.44,2.45,6.61,3.41,10,1.44,5.08,1.07,10.09.19,15.16a76.289,76.289,0,0,0-.5,23.12,74.531,74.531,0,0,0,5.84,20.27h0q.64,1.42,1.32,2.85c.35.71.7,1.42,1.07,2.13a4,4,0,0,0,.84,1.35,76.878,76.878,0,0,0,11.5,14.9c.88.89,1.8,1.79,2.77,2.68s2.22,2,3.41,3a75.992,75.992,0,0,0,8.86,6.25l.13.08.88.52.08.05,2.73,1.57c2.63,1.5,5.61,2.21,8.12,3.9h0l2.1.14c3.84-.75,7.7-1.42,11.52-2.25a102.89,102.89,0,0,0,20.81-6.84,162.838,162.838,0,0,0,26.19-14.65c7.43-5.24,13.84-11.44,20.34-17.74a126.747,126.747,0,0,0,11.7-14.2,1.7,1.7,0,0,1,.15-.22c2.62-3.39,4.4-7,6.82-10.43.17-.6.34-1.21.5-1.81h0Zm-94.72-50.65c.18-2.48,0-5,.07-7.49a15.79,15.79,0,0,1,11.74-15.14h0a16,16,0,0,1,7.28-.22,13.452,13.452,0,0,1,2.14.63c5.89,2.26,10.08,8.56,9.92,14v8.48c.1,1.82-1.2,1.35-2.14,1.34s-2.21.5-2.15-1.34c.09-2.56,0-5.13,0-7.69a11.25,11.25,0,0,0-20.89-5.9,11.62,11.62,0,0,0-1.58,6.22c0,2.36-.09,4.73,0,7.09s-1.53,1.54-2.7,1.67-1.79-.14-1.69-1.65ZM380,392.61a17.491,17.491,0,0,1-1.53,1h0a12.26,12.26,0,0,1-6.87,1.68l-2.13-.08h-63.9a12.531,12.531,0,0,1-5.15-1.09,11.51,11.51,0,0,1-6.29-6.2h0a13.115,13.115,0,0,1-.64-1.65h0a12.66,12.66,0,0,1,0-7.24l1.82-12.67.43-3h0c.25-2,.49-4,.8-5.95l1-6.45,4.12-28.72a12.53,12.53,0,0,1,2.86-8l.28-.33h0a12.56,12.56,0,0,1,9.48-4.29h50.5l.71.18a12.62,12.62,0,0,1,10.64,12c.15.75.28,1.56.41,2.41q4,27.48,8.13,54.93C385.5,384.46,384.65,389.26,380,392.61Z" transform="translate(670 -66)" fill="url(#linear-gradient-5)"/>
    <path id="Path_11" data-name="Path 11" d="M352.38,306.21c-.93,0-2.2.5-2.14-1.35.09-2.55,0-5.12,0-7.68a11.25,11.25,0,0,0-20.89-5.9,11.69,11.69,0,0,0-1.59,6.22c0,2.36-.08,4.73,0,7.09s-1.52,1.53-2.69,1.67-1.81-.12-1.71-1.62c.17-2.48,0-5,.06-7.49a15.84,15.84,0,0,1,16-15.68,16.131,16.131,0,0,1,3,.32c7,1.4,12.24,8.56,12.07,14.59v8.48C354.63,306.69,353.34,306.22,352.38,306.21Z" transform="translate(670 -66)" fill="#fffefc"/>
    <circle id="Ellipse_2" data-name="Ellipse 2" cx="8.21" cy="8.21" r="8.21" transform="translate(985.22 184.58)" fill="url(#linear-gradient-6)"/>
    <path id="Path_12" data-name="Path 12" d="M384.9,382.37A12.62,12.62,0,0,1,372.28,395H305.6a12.61,12.61,0,0,1-11.44-7.29h0a13.723,13.723,0,0,1-.64-1.65h0a12.62,12.62,0,0,1-.54-3.66l.52-3.58,1.82-12.67.43-3h0l1.79-12.4,4.12-28.7a12.63,12.63,0,0,1,12.63-12.63h49.29a12.6,12.6,0,0,1,12.13,12.16V322l8.67,56.78Z" transform="translate(670 -66)" fill="#fff"/>
    <path id="Path_13" data-name="Path 13" d="M293.48,378.8l-.51,3.57A12.33,12.33,0,0,1,293.48,378.8Z" transform="translate(670 -66)" fill="#fff"/>
    <path id="Path_14" data-name="Path 14" d="M376.54,372.07l-.07.06h0l-5.73,1.94s-.86.1-.3,1a13.689,13.689,0,0,0,1.85,2.17h0l8.14,8.38a1.28,1.28,0,0,1,0,1.82h0l-2.08,2a1.27,1.27,0,0,1-1.81,0h0l-7.95-8.19a14.318,14.318,0,0,0-2-2c-.87-.65-1,.2-1,.2L363,385.21l-6.34-18.47a1.21,1.21,0,0,1,1.57-1.54Z" transform="translate(670 -66)" fill="url(#linear-gradient-7)"/>
    <circle id="Ellipse_3" data-name="Ellipse 3" cx="23.65" cy="23.65" r="23.65" transform="translate(983.214 307.36) rotate(-85.27)" fill="url(#linear-gradient-8)"/>
    <path id="Path_15" data-name="Path 15" d="M336.27,334.4c.11.27.32.25.54.17a12.84,12.84,0,0,1,5.76,1.15c3.16,1.42,3.17,1.41,5.36-.76.33.1.33.39.34.64.1,2.89.19,5.77.27,8.66,0,.5.17,1.18-.6,1.22-.59,0-.64-.57-.75-1a10.74,10.74,0,0,0-4.63-6.59,8.16,8.16,0,0,0-6.23-1.15,4.17,4.17,0,0,0-3.36,3,3.9,3.9,0,0,0,1.17,4.14,15.769,15.769,0,0,0,3.55,2.44c2.71,1.44,5.45,2.86,8,4.5,3.85,2.42,5.34,5.94,4.51,10.05-.75,3.72-4.27,7-8.23,7.85-3.52.78-6.78-.2-10-1.35a2.55,2.55,0,0,0-3.37.94c-.23.3-.41.72-.91.48s-.28-.56-.28-.87V357.66c0-.38-.09-.91.41-1s.66.57.75,1a12.44,12.44,0,0,0,4.92,7.67,8.31,8.31,0,0,0,8.17,1.37,4.64,4.64,0,0,0,1.8-7.7,13.63,13.63,0,0,0-3.7-2.57c-3.76-1.94-7.84-3.47-10.48-7a8.21,8.21,0,0,1-1.42-8.08c1.2-3.34,3.75-5.23,6.92-6.47C335.34,334.8,335.91,334.93,336.27,334.4Z" transform="translate(670 -66)" fill="#fffefc"/>
  </g>
</svg>
